<svg width="1440" height="665" viewBox="0 0 1440 665" fill="none" xmlns="http://www.w3.org/2000/svg">
<g filter="url(#filter0_f_198_1280)">
<ellipse cx="320" cy="345.343" rx="200" ry="31.2526" transform="rotate(-180 320 345.343)" fill="#E8F2A2"/>
</g>
<g filter="url(#filter1_f_198_1280)">
<ellipse cx="720" cy="345.343" rx="200" ry="31.2526" transform="rotate(-180 720 345.343)" fill="black"/>
</g>
<g filter="url(#filter2_f_198_1280)">
<ellipse cx="1120" cy="345.343" rx="200" ry="31.2526" transform="rotate(-180 1120 345.343)" fill="#4649D6"/>
</g>
<g style="mix-blend-mode:overlay" opacity="0.6">
<path d="M1328.57 531.136H1305.05V327.09H1328.57V531.136ZM1367.28 437.796L1440 531.136H1411.42L1350.28 454.076L1367.28 437.796ZM1326.76 493.511V466.377L1408.89 383.167H1438.55L1326.76 493.511Z" fill="white"/>
<path d="M1143.59 530.774V383.528H1163.49L1167.47 420.068H1168.2C1168.68 418.862 1169.76 416.33 1171.45 412.471C1173.38 408.371 1176.28 404.15 1180.13 399.808C1183.99 395.467 1189.18 391.729 1195.69 388.593C1202.44 385.216 1210.89 383.528 1221.02 383.528C1231.15 383.528 1239.59 385.096 1246.34 388.231C1253.09 391.126 1258.4 395.226 1262.26 400.532C1266.36 405.597 1269.37 411.385 1271.3 417.898C1273.23 424.41 1274.44 431.163 1274.92 438.157C1275.65 444.911 1276.01 451.543 1276.01 458.056V530.774H1253.58V458.056C1253.58 447.443 1252.37 438.157 1249.96 430.198C1247.79 421.998 1243.81 415.727 1238.02 411.385C1232.23 406.803 1224.03 404.512 1213.42 404.512C1202.57 404.512 1193.76 407.165 1187.01 412.471C1180.26 417.536 1175.31 424.41 1172.18 433.092C1169.04 441.534 1167.47 450.82 1167.47 460.95V530.774H1143.59Z" fill="white"/>
<path d="M1044.55 534.03C1031.05 534.03 1019.95 530.774 1011.27 524.262C1002.59 517.509 996.074 508.464 991.733 497.128C987.632 485.792 985.582 472.889 985.582 458.418C985.582 443.464 987.753 430.319 992.094 418.983C996.436 407.647 1002.95 398.723 1011.63 392.211C1020.55 385.458 1031.53 382.081 1044.55 382.081C1052.27 382.081 1058.9 383.166 1064.45 385.337C1070.24 387.267 1075.18 389.92 1079.28 393.296C1083.38 396.673 1086.76 400.291 1089.41 404.15C1092.31 407.768 1094.48 411.265 1095.93 414.642H1096.29V383.528H1120.17V530.774H1100.27L1096.65 502.193H1095.93C1094.24 505.811 1092.07 509.55 1089.41 513.409C1086.76 517.026 1083.26 520.403 1078.92 523.539C1074.82 526.674 1069.88 529.207 1064.09 531.136C1058.54 533.066 1052.03 534.03 1044.55 534.03ZM1053.6 513.409C1063.73 513.409 1071.81 511.238 1077.84 506.897C1084.11 502.314 1088.69 495.922 1091.58 487.722C1094.48 479.522 1095.93 469.874 1095.93 458.779C1095.93 446.961 1094.36 436.952 1091.22 428.751C1088.33 420.551 1083.75 414.4 1077.48 410.3C1071.2 405.959 1063.25 403.788 1053.6 403.788C1042.99 403.788 1034.3 406.2 1027.55 411.024C1021.04 415.848 1016.33 422.36 1013.44 430.56C1010.55 438.761 1009.1 448.046 1009.1 458.418C1009.1 469.03 1010.55 478.557 1013.44 486.998C1016.58 495.199 1021.4 501.711 1027.91 506.535C1034.66 511.117 1043.23 513.409 1053.6 513.409Z" fill="white"/>
<path d="M906.14 534.392C896.492 534.392 888.292 532.824 881.539 529.689C875.026 526.312 869.6 522.453 865.258 518.112C861.158 513.771 858.023 509.67 855.852 505.811C853.681 501.952 852.355 499.42 851.872 498.214H851.149L847.531 530.774H827.271V327.09H851.511V420.43H852.234C852.716 419.224 853.922 416.692 855.852 412.833C857.781 408.974 860.676 404.753 864.535 400.17C868.635 395.588 874.062 391.729 880.815 388.593C887.568 385.217 895.889 383.528 905.778 383.528C920.008 383.528 931.827 386.784 941.233 393.296C950.88 399.809 958.116 408.853 962.94 420.43C967.764 431.766 970.176 444.67 970.176 459.141C970.176 473.613 967.764 486.516 962.94 497.852C958.116 509.188 951.001 518.112 941.595 524.624C932.188 531.136 920.37 534.392 906.14 534.392ZM900.351 513.771C911.928 513.771 921.094 511.117 927.847 505.811C934.841 500.505 939.786 493.752 942.68 485.551C945.816 477.11 947.383 468.306 947.383 459.141C947.383 449.735 945.695 440.931 942.318 432.731C938.942 424.53 933.635 417.898 926.4 412.833C919.164 407.527 909.878 404.874 898.542 404.874C889.136 404.874 880.936 407.044 873.941 411.386C866.947 415.727 861.52 421.998 857.661 430.198C853.802 438.399 851.872 448.046 851.872 459.141C851.872 470.236 853.922 480.004 858.023 488.446C862.123 496.646 867.791 502.917 875.026 507.258C882.503 511.6 890.945 513.771 900.351 513.771Z" fill="white"/>
<path d="M731.697 534.392C715.538 534.392 702.152 530.774 691.539 523.538C681.168 516.062 673.45 506.535 668.385 494.957C663.562 483.139 661.15 470.959 661.15 458.417C661.15 444.67 663.803 432.128 669.109 420.792C674.656 409.215 682.615 400.05 692.987 393.296C703.599 386.543 716.261 383.166 730.974 383.166C743.757 383.166 754.972 385.94 764.62 391.487C774.509 396.793 782.347 404.512 788.136 414.641C794.166 424.771 797.542 436.71 798.266 450.458C798.507 451.423 798.628 452.87 798.628 454.8C798.628 456.488 798.628 458.056 798.628 459.503H683.58C683.58 476.627 687.68 490.134 695.881 500.022C704.323 509.67 716.141 514.494 731.336 514.494C742.672 514.494 752.319 511.6 760.278 505.811C768.479 500.022 773.544 492.184 775.473 482.295H798.266C796.577 492.184 792.839 501.108 787.05 509.067C781.262 517.026 773.664 523.297 764.258 527.88C754.852 532.221 743.998 534.392 731.697 534.392ZM684.304 446.84H774.75C774.75 442.981 773.906 438.64 772.217 433.816C770.77 428.751 768.358 423.927 764.982 419.345C761.605 414.521 757.143 410.541 751.596 407.406C746.048 404.27 739.054 402.703 730.612 402.703C723.135 402.703 716.623 404.029 711.076 406.682C705.528 409.094 700.825 412.471 696.966 416.812C693.348 420.912 690.454 425.616 688.283 430.922C686.354 436.228 685.027 441.534 684.304 446.84Z" fill="white"/>
<path d="M613.036 530.774V327.09H635.828V530.774H613.036Z" fill="white"/>
<path d="M521.292 534.392C511.644 534.392 503.444 532.824 496.691 529.689C490.179 526.312 484.752 522.453 480.41 518.112C476.31 513.771 473.175 509.67 471.004 505.811C468.833 501.952 467.507 499.42 467.024 498.214H466.301L462.683 530.774H442.423V327.09H466.663V420.43H467.386C467.869 419.224 469.075 416.692 471.004 412.833C472.934 408.974 475.828 404.753 479.687 400.17C483.787 395.588 489.214 391.729 495.967 388.593C502.72 385.217 511.041 383.528 520.93 383.528C535.16 383.528 546.979 386.784 556.385 393.296C566.033 399.809 573.268 408.853 578.092 420.43C582.916 431.766 585.328 444.67 585.328 459.141C585.328 473.613 582.916 486.516 578.092 497.852C573.268 509.188 566.153 518.112 556.747 524.624C547.34 531.136 535.522 534.392 521.292 534.392ZM515.503 513.771C527.081 513.771 536.246 511.117 542.999 505.811C549.994 500.505 554.938 493.752 557.832 485.551C560.968 477.11 562.535 468.306 562.535 459.141C562.535 449.735 560.847 440.931 557.47 432.731C554.094 424.53 548.788 417.898 541.552 412.833C534.316 407.527 525.03 404.874 513.695 404.874C504.288 404.874 496.088 407.044 489.093 411.386C482.099 415.727 476.672 421.998 472.813 430.198C468.954 438.399 467.024 448.046 467.024 459.141C467.024 470.236 469.075 480.004 473.175 488.446C477.275 496.646 482.943 502.917 490.179 507.258C497.655 511.6 506.097 513.771 515.503 513.771Z" fill="white"/>
<path d="M340.489 534.03C326.982 534.03 315.887 530.774 307.204 524.262C298.522 517.509 292.01 508.464 287.668 497.128C283.568 485.792 281.518 472.889 281.518 458.418C281.518 443.464 283.689 430.319 288.03 418.983C292.371 407.647 298.883 398.723 307.566 392.211C316.49 385.458 327.464 382.081 340.489 382.081C348.207 382.081 354.839 383.166 360.387 385.337C366.175 387.267 371.12 389.92 375.22 393.296C379.32 396.673 382.697 400.291 385.35 404.15C388.244 407.768 390.415 411.265 391.862 414.642H392.224V383.528H416.101V530.774H396.203L392.585 502.193H391.862C390.174 505.811 388.003 509.55 385.35 513.409C382.697 517.026 379.199 520.403 374.858 523.539C370.758 526.674 365.813 529.207 360.025 531.136C354.478 533.066 347.965 534.03 340.489 534.03ZM349.533 513.409C359.663 513.409 367.743 511.238 373.773 506.897C380.044 502.314 384.626 495.922 387.521 487.722C390.415 479.522 391.862 469.874 391.862 458.779C391.862 446.961 390.294 436.952 387.159 428.751C384.264 420.551 379.682 414.4 373.411 410.3C367.14 405.959 359.181 403.788 349.533 403.788C338.921 403.788 330.238 406.2 323.485 411.024C316.973 415.848 312.269 422.36 309.375 430.56C306.481 438.761 305.034 448.046 305.034 458.418C305.034 469.03 306.481 478.557 309.375 486.998C312.511 495.199 317.334 501.711 323.847 506.535C330.6 511.117 339.162 513.409 349.533 513.409Z" fill="white"/>
<path d="M229.288 530.774C220.605 530.774 214.455 528.362 210.837 523.538C207.219 518.715 205.41 512.082 205.41 503.64V397.637H227.841V511.961H262.21V530.774H229.288ZM182.256 400.894V383.528C188.044 383.528 192.627 383.287 196.004 382.804C199.621 382.081 202.275 380.634 203.963 378.463C205.651 376.051 206.737 372.192 207.219 366.886C207.701 361.58 207.943 354.465 207.943 345.541H227.841V383.528H261.848V400.894H182.256Z" fill="white"/>
<path d="M89.4976 535.478C78.8853 535.478 68.3935 534.151 58.0224 531.498C47.8924 528.845 38.6067 524.865 30.165 519.559C21.9646 514.012 15.3319 506.897 10.2669 498.214C5.44314 489.531 3.03125 479.28 3.03125 467.462H26.1854C26.1854 468.186 26.4266 470.236 26.909 473.612C27.3914 476.989 28.5973 480.969 30.5268 485.551C32.6975 490.134 36.0742 494.596 40.6568 498.937C45.2394 503.279 51.6309 506.897 59.8313 509.791C68.0317 512.685 78.5235 514.132 91.3065 514.132C101.919 514.132 110.602 512.926 117.355 510.514C124.349 507.861 129.656 504.726 133.273 501.108C137.132 497.249 139.786 493.511 141.233 489.893C142.68 486.034 143.403 482.898 143.403 480.486C143.645 472.045 141.353 465.291 136.529 460.226C131.706 454.92 125.194 450.82 116.993 447.926C109.034 444.79 100.231 442.017 90.583 439.605C80.9354 437.193 71.2878 434.66 61.6402 432.007C52.2339 429.113 43.551 425.495 35.5918 421.154C27.6325 416.812 21.3616 411.024 16.779 403.788C12.1964 396.311 10.1463 386.905 10.6287 375.569C11.1111 364.716 14.8495 355.43 21.844 347.712C28.8385 339.994 38.2449 334.084 50.0632 329.984C61.8814 325.643 75.1468 323.472 89.8594 323.472C103.848 323.472 116.631 326.005 128.208 331.07C139.786 335.893 149.071 343.25 156.066 353.138C163.06 363.027 166.316 375.328 165.834 390.04H143.042C143.524 380.875 141.836 373.398 137.977 367.61C134.118 361.821 129.173 357.359 123.144 354.224C117.114 350.847 110.843 348.556 104.331 347.35C98.0598 345.903 92.5125 345.179 87.6887 345.179C72.4938 345.179 59.9519 348.194 50.0632 354.224C40.4156 360.254 35.3506 368.092 34.8682 377.74C34.8682 386.181 37.2801 392.935 42.1039 398C46.9277 403.065 53.3192 407.165 61.2785 410.3C69.2377 413.195 78.0411 415.727 87.6887 417.898C97.5774 420.068 107.225 422.601 116.631 425.495C126.279 428.148 135.082 431.646 143.042 435.987C151.001 440.328 157.272 446.237 161.854 453.714C166.437 461.191 168.487 470.718 168.005 482.295C167.522 493.631 163.784 503.279 156.789 511.238C149.795 518.956 140.509 524.986 128.932 529.327C117.355 533.427 104.21 535.478 89.4976 535.478Z" fill="white"/>
</g>
<defs>
<filter id="filter0_f_198_1280" x="-194" y="0.0904846" width="1028" height="690.505" filterUnits="userSpaceOnUse" color-interpolation-filters="sRGB">
<feFlood flood-opacity="0" result="BackgroundImageFix"/>
<feBlend mode="normal" in="SourceGraphic" in2="BackgroundImageFix" result="shape"/>
<feGaussianBlur stdDeviation="157" result="effect1_foregroundBlur_198_1280"/>
</filter>
<filter id="filter1_f_198_1280" x="206" y="0.0904846" width="1028" height="690.505" filterUnits="userSpaceOnUse" color-interpolation-filters="sRGB">
<feFlood flood-opacity="0" result="BackgroundImageFix"/>
<feBlend mode="normal" in="SourceGraphic" in2="BackgroundImageFix" result="shape"/>
<feGaussianBlur stdDeviation="157" result="effect1_foregroundBlur_198_1280"/>
</filter>
<filter id="filter2_f_198_1280" x="606" y="0.0904541" width="1028" height="690.505" filterUnits="userSpaceOnUse" color-interpolation-filters="sRGB">
<feFlood flood-opacity="0" result="BackgroundImageFix"/>
<feBlend mode="normal" in="SourceGraphic" in2="BackgroundImageFix" result="shape"/>
<feGaussianBlur stdDeviation="157" result="effect1_foregroundBlur_198_1280"/>
</filter>
</defs>
</svg>
