<svg width="167" height="20" viewBox="0 0 167 20" fill="none" xmlns="http://www.w3.org/2000/svg">
<path fill-rule="evenodd" clip-rule="evenodd" d="M32.4028 0.00162925C37.7515 -0.00677696 42.153 0.0184417 42.1865 0.0520665C42.22 0.0856913 41.6499 1.28778 39.5792 5.33117L18.3183 5.41523L17.6895 5.71785C17.3374 5.89438 16.8763 6.20541 16.6331 6.43238C16.3984 6.65935 16.0211 7.16372 15.7948 7.55881C15.5684 7.9455 15.2163 8.44146 15.0067 8.65162C14.7971 8.87018 14.4366 9.14758 14.2103 9.28208C13.9755 9.41658 13.548 9.59311 13.2462 9.67717C12.7599 9.81167 12.2904 9.82849 8.90343 9.82849C5.92723 9.82849 5.11402 9.80327 5.11402 9.72761C5.11402 9.66877 5.69249 8.48349 7.67942 4.57461L12.1563 4.52417C15.996 4.49054 16.7002 4.45692 17.0607 4.33923C17.2871 4.26358 17.6643 4.10386 17.8991 3.96936C18.1254 3.84327 18.4943 3.56586 18.7039 3.35571C18.9135 3.14555 19.274 2.65799 19.5004 2.2629C19.7267 1.87621 20.0788 1.38025 20.2884 1.17009C20.498 0.959937 20.8417 0.690938 21.0429 0.573251C21.2525 0.455564 21.613 0.304253 21.8562 0.237003C22.0993 0.161347 22.3843 0.0856913 22.4849 0.0604727C22.5939 0.0352541 27.054 0.0100355 32.4028 0.00162925ZM33.2411 10.1647C35.3119 10.1647 37.0389 10.19 37.0725 10.2236C37.106 10.2656 36.5443 11.4509 34.4987 15.4606H30.4494C28.0852 15.4606 26.1402 15.4943 25.7545 15.5531C25.3773 15.6036 24.891 15.7381 24.5808 15.8894C24.2958 16.0239 23.8515 16.3349 23.5916 16.5703C23.3317 16.8225 22.9125 17.3604 22.6442 17.8144C22.3676 18.2683 21.9819 18.7727 21.7472 18.9744C21.5208 19.1762 21.11 19.4452 20.8333 19.5797C20.5567 19.7142 20.104 19.8571 19.8273 19.9075C19.4836 19.9748 16.2726 20 9.65796 20C1.98692 20 0 19.9748 0 19.8907C0 19.8403 0.595238 18.6298 2.64085 14.62L23.8515 14.578L24.497 14.2586C24.9078 14.0652 25.3186 13.7878 25.5953 13.502C25.8384 13.2666 26.2073 12.7623 26.4252 12.3924C26.6516 11.9889 27.0037 11.5349 27.2971 11.2575C27.5738 11.0054 27.9594 10.7111 28.169 10.6103C28.3786 10.5094 28.7559 10.3665 29.0074 10.2992C29.3763 10.1984 30.2063 10.1731 33.2411 10.1647ZM54.6194 1.82578C55.0386 1.84259 55.7512 1.93506 56.2123 2.02753C56.6734 2.11999 57.3106 2.30493 57.6375 2.43943C57.9645 2.57393 58.4507 2.85133 58.7274 3.06149C59.0041 3.27164 59.3729 3.6163 59.549 3.83486C59.7251 4.06183 59.9598 4.42329 60.0772 4.65867C60.1862 4.88564 60.3538 5.3816 60.4461 5.75148C60.5383 6.12135 60.6137 6.62572 60.6137 7.30662H57.6795V7.02922C57.6795 6.88631 57.6208 6.55007 57.5453 6.29788C57.4531 5.99526 57.2854 5.70944 57.0507 5.45726C56.8411 5.23029 56.4806 4.9781 56.162 4.8352C55.6422 4.59142 55.5835 4.58301 54.5356 4.59983C53.9403 4.60823 53.1188 4.65867 52.708 4.7007C52.3055 4.75114 51.7774 4.86042 51.5342 4.95289C51.2995 5.03695 50.9977 5.22188 50.8719 5.34798C50.7546 5.47407 50.612 5.74307 50.5617 5.93641C50.4947 6.1886 50.4947 6.40716 50.5534 6.65094C50.5953 6.85269 50.6959 7.09647 50.763 7.19734C50.83 7.30662 51.0648 7.52519 51.2827 7.6849C51.5426 7.86984 52.0456 8.09681 52.6912 8.30696C53.2445 8.4919 54.3176 8.77771 55.0805 8.94584C55.8434 9.11396 56.7824 9.35774 57.1764 9.49224C57.5705 9.61833 58.1825 9.86211 58.5346 10.0302C58.9789 10.2404 59.3394 10.4842 59.6748 10.812C59.9598 11.0894 60.2616 11.5013 60.379 11.7619C60.4964 12.0141 60.6473 12.468 60.7059 12.7707C60.7646 13.1069 60.7898 13.6197 60.7563 14.1157C60.7143 14.805 60.6724 14.9899 60.4125 15.5027C60.2448 15.8473 59.9347 16.2676 59.6748 16.5282C59.4316 16.7636 59.0041 17.0999 58.7274 17.268C58.4507 17.4277 57.931 17.6799 57.5705 17.8144C57.2184 17.9573 56.4974 18.1422 55.9776 18.2347C55.3572 18.344 54.6697 18.4028 53.9655 18.4028C53.2613 18.4028 52.6241 18.3524 52.0792 18.2431C51.6348 18.1506 50.9474 17.9657 50.5534 17.8228C50.1593 17.6799 49.5641 17.3857 49.2287 17.1671C48.8934 16.9401 48.3904 16.5366 48.1137 16.2592C47.8035 15.9482 47.5185 15.5615 47.3676 15.2505C47.2418 14.9731 47.0741 14.5023 47.0071 14.1997C46.9316 13.8971 46.8646 13.4432 46.8226 12.7286L49.7988 12.6866L49.8408 12.9136C49.8659 13.0481 49.933 13.2834 49.9833 13.4432C50.0336 13.6029 50.218 13.9475 50.3941 14.1997C50.5869 14.4687 50.9222 14.7966 51.2073 14.9815C51.4672 15.158 51.8947 15.3598 52.1462 15.4438C52.5151 15.5531 52.9175 15.5867 54.1164 15.5867C55.4494 15.5783 55.6758 15.5615 56.0866 15.4018C56.4135 15.2757 56.665 15.0908 56.9501 14.7713C57.21 14.4855 57.3693 14.2165 57.4028 14.0316C57.4279 13.8719 57.4279 13.5693 57.4028 13.3591C57.3693 13.1489 57.2603 12.8547 57.1597 12.7118C57.0339 12.5269 56.7153 12.3083 56.2123 12.0645C55.6171 11.7703 55.0302 11.5854 53.4038 11.1819C52.272 10.8961 51.1067 10.5682 50.8049 10.4421C50.5031 10.3245 49.9665 10.0723 49.606 9.89574C49.2539 9.71921 48.8263 9.45021 48.6587 9.2989C48.4826 9.15599 48.1976 8.80293 48.0131 8.52552C47.8287 8.24812 47.6191 7.88665 47.552 7.72693C47.4849 7.56722 47.4011 7.11328 47.3592 6.71819C47.2921 6.15497 47.3005 5.86916 47.4095 5.3732C47.4766 5.02854 47.6191 4.57461 47.7197 4.36445C47.8203 4.1543 48.1305 3.7592 48.4071 3.4818C48.7173 3.17077 49.1114 2.87655 49.4216 2.73365C49.6982 2.60755 50.1845 2.41421 50.5114 2.30493C50.8384 2.19565 51.3414 2.06956 51.6432 2.01071C51.945 1.95187 52.5654 1.87621 53.0265 1.84259C53.4876 1.81737 54.2002 1.80056 54.6194 1.82578ZM83.0819 1.75853L86.1419 1.80056L86.1838 5.20507C86.209 7.07966 86.2509 8.51712 86.2844 8.39943C86.318 8.28174 86.5779 7.92868 86.8713 7.60925C87.2066 7.24778 87.6007 6.92835 87.9444 6.735C88.2462 6.56688 88.6738 6.38194 88.9085 6.31469C89.1349 6.25585 89.6882 6.20541 90.1241 6.197C90.5685 6.197 91.1721 6.25585 91.4823 6.3315C91.8009 6.40716 92.2536 6.56688 92.4883 6.69297C92.7315 6.81066 93.1339 7.10488 93.377 7.34025C93.6285 7.57562 93.9303 7.9539 94.0645 8.18928C94.1986 8.41624 94.383 8.81974 94.4836 9.07193C94.5842 9.32411 94.7351 9.89574 94.8274 10.3329C94.9531 10.9129 94.995 11.4677 94.995 12.3503C94.995 13.2498 94.9531 13.7626 94.8357 14.3258C94.7435 14.7377 94.5759 15.3093 94.4669 15.5867C94.3579 15.8641 94.1148 16.3181 93.9303 16.5871C93.7543 16.8645 93.4525 17.2175 93.268 17.3773C93.0836 17.537 92.7398 17.7555 92.5135 17.8648C92.2787 17.9741 91.826 18.117 91.5074 18.1927C91.1889 18.2599 90.5349 18.3188 90.0571 18.3188C89.3612 18.3188 89.0846 18.2767 88.548 18.1002C88.1959 17.9825 87.718 17.7639 87.4917 17.621C87.2653 17.4697 86.9048 17.1251 86.6869 16.8477C86.4689 16.5703 86.2593 16.276 86.2174 16.2004C86.1587 16.0911 86.0748 16.3097 85.6389 18.0666H83.0819V1.75853ZM87.6929 9.14758C87.5252 9.19802 87.2569 9.38296 87.0893 9.55949C86.9132 9.72761 86.6869 10.0807 86.5695 10.3329C86.4605 10.5935 86.318 11.0474 86.2593 11.3416C86.1922 11.6863 86.1754 12.199 86.2006 12.6866C86.2341 13.2078 86.318 13.6869 86.4437 14.0316C86.5443 14.3342 86.7455 14.7293 86.8881 14.9058C87.0306 15.0908 87.3659 15.3514 87.6426 15.4943C88.0785 15.7212 88.2462 15.7633 88.9421 15.7885C89.4954 15.8137 89.881 15.7801 90.208 15.6876C90.5098 15.6036 90.8032 15.4354 91.0715 15.2001C91.2979 14.9983 91.5661 14.6452 91.6751 14.4099C91.8093 14.1241 91.9015 13.7206 91.9602 13.1489C92.0105 12.5857 92.0105 12.0898 91.9518 11.6358C91.9099 11.2659 91.7841 10.7616 91.6919 10.501C91.5913 10.2488 91.3733 9.90414 91.1973 9.72761C91.0212 9.55108 90.7278 9.33252 90.5433 9.24005C90.3589 9.14758 89.9481 9.0383 89.6379 8.99627C89.3277 8.94584 89.0175 8.91221 88.9504 8.92062C88.875 8.92062 88.6319 8.95424 88.4055 8.98787C88.1708 9.02149 87.8522 9.09715 87.6929 9.14758ZM96.6634 1.75853H99.6815V18.0666H96.6634V1.75853ZM114.521 1.75853L117.597 1.76693C119.291 1.76693 121.135 1.80056 121.689 1.84259C122.242 1.89303 122.938 1.96868 123.24 2.01912C123.533 2.06956 124.044 2.18724 124.371 2.27971C124.69 2.37218 125.159 2.55712 125.419 2.69162C125.671 2.82612 126.056 3.11193 126.283 3.33889C126.501 3.55746 126.794 3.96095 126.928 4.23836C127.079 4.54098 127.222 5.02014 127.28 5.41523C127.356 5.9196 127.356 6.23063 127.289 6.63413C127.239 6.93675 127.104 7.4075 127.004 7.6849C126.895 7.96231 126.668 8.34059 126.501 8.52552C126.333 8.71046 126.006 8.97105 125.78 9.09715C125.553 9.22324 125 9.41658 124.539 9.53427C124.078 9.65196 123.6 9.75283 123.491 9.76124C123.374 9.76964 123.6 9.80327 123.994 9.83689C124.38 9.87052 124.95 9.96299 125.252 10.0386C125.545 10.1143 125.956 10.2572 126.157 10.3581C126.358 10.4674 126.694 10.7027 126.912 10.8877C127.13 11.081 127.423 11.4593 127.565 11.7283C127.716 12.0057 127.892 12.4512 127.968 12.7286C128.043 13.006 128.102 13.4432 128.094 13.6953C128.094 13.9559 128.035 14.4267 127.968 14.7461C127.901 15.074 127.742 15.5111 127.616 15.7128C127.498 15.923 127.205 16.2929 126.97 16.5366C126.727 16.7972 126.316 17.1083 126.006 17.2596C125.704 17.4193 125.235 17.6042 124.958 17.6799C124.682 17.7555 124.095 17.8732 123.659 17.9405C123.022 18.0414 122.024 18.0666 114.521 18.0666V1.75853ZM117.455 8.48349C122.519 8.44146 122.72 8.42465 123.156 8.25653C123.416 8.15565 123.726 7.9539 123.885 7.77737C124.036 7.61765 124.204 7.31503 124.254 7.12169C124.304 6.92835 124.329 6.51644 124.304 6.21382C124.279 5.9196 124.204 5.55813 124.137 5.41523C124.061 5.28073 123.902 5.06217 123.768 4.93607C123.634 4.81839 123.357 4.65026 123.156 4.58301C122.946 4.50736 122.451 4.41489 122.066 4.36445C121.672 4.32242 120.473 4.2888 119.4 4.2888L117.455 4.28039V8.48349ZM117.455 15.6288C122.083 15.5783 122.896 15.5363 123.24 15.4438C123.491 15.3766 123.86 15.2421 124.053 15.1412C124.246 15.0403 124.489 14.8386 124.598 14.6873C124.698 14.536 124.832 14.2417 124.891 14.0316C124.95 13.8298 125 13.5188 125 13.3423C125 13.1658 124.95 12.8463 124.891 12.6278C124.824 12.384 124.656 12.0898 124.447 11.8544C124.254 11.6442 123.919 11.392 123.692 11.2912C123.466 11.1903 122.996 11.0642 122.653 11.0138C122.301 10.9633 121.001 10.8961 119.752 10.8709L117.48 10.812L117.455 15.6288ZM154.594 1.75853H157.612L157.654 11.7787L162.601 6.13816L164.361 6.15497C165.602 6.17179 166.122 6.20541 166.122 6.27266C166.122 6.3231 165.074 7.46634 163.791 8.81134C162.508 10.1563 161.469 11.2996 161.469 11.3416C161.469 11.392 162.542 12.8968 163.858 14.6873C165.174 16.4778 166.222 17.9741 166.189 18.0077C166.147 18.0414 165.351 18.0582 162.693 18.0245L159.331 13.4348L157.604 15.1664L157.612 18.0666H154.594V1.75853ZM66.2308 3.18758V6.12975H68.9135V8.31537H66.2308V15.7128H68.9974V18.0666H67.3374C66.2559 18.0666 65.5349 18.0329 65.2666 17.9573C65.0319 17.8984 64.7133 17.7724 64.554 17.6715C64.3864 17.579 64.1432 17.352 64.0091 17.1755C63.875 16.999 63.6905 16.6375 63.6151 16.3685C63.4725 15.9314 63.4642 15.5027 63.4642 8.31537H61.7036L61.6952 6.17179L62.2653 6.12975C62.5755 6.09613 62.9444 6.02047 63.0869 5.94482C63.221 5.87757 63.3971 5.69263 63.4725 5.53291C63.5564 5.3816 63.657 5.07898 63.7073 4.86882C63.7492 4.66707 63.7911 4.2888 63.7911 4.0282C63.7995 3.77602 63.8163 3.4818 63.8498 3.38093C63.8917 3.19599 63.9253 3.18758 66.2308 3.18758ZM74.9498 6.197C75.2013 6.21382 75.5953 6.27266 75.83 6.31469C76.0564 6.36513 76.4169 6.49122 76.6265 6.6005C76.8277 6.70138 77.2217 6.98719 77.49 7.23937C77.7667 7.48315 78.0936 7.87825 78.4625 8.52552L78.5128 6.17179L81.5477 6.12975L81.5728 18.0666H78.9739L78.7643 17.1419C78.6469 16.6375 78.5212 16.2256 78.4876 16.2256C78.4541 16.2256 78.3284 16.3769 78.2194 16.5703C78.102 16.7636 77.8589 17.0746 77.6744 17.2596C77.49 17.4529 77.1127 17.7303 76.8361 17.8732C76.5594 18.0161 76.1319 18.1759 75.8887 18.2263C75.6456 18.2767 75.0755 18.3188 74.6144 18.3188C74.1533 18.3188 73.5748 18.2767 73.3317 18.2263C73.0886 18.1759 72.6945 18.0414 72.4514 17.9321C72.2083 17.8228 71.8227 17.5538 71.5795 17.3352C71.328 17.0999 71.043 16.7132 70.8837 16.3853C70.7328 16.0911 70.5316 15.5783 70.4394 15.2505C70.3388 14.9311 70.2214 14.3847 70.1627 14.0316C70.104 13.6869 70.0621 12.8968 70.0621 12.2663C70.0705 11.6442 70.1292 10.7952 70.2046 10.3749C70.2717 9.96299 70.4058 9.39136 70.5064 9.11396C70.5986 8.83655 70.7747 8.44146 70.8921 8.23131C71.0178 8.02956 71.2526 7.69331 71.4202 7.48315C71.5795 7.28141 71.873 7.01241 72.0574 6.88631C72.2418 6.76022 72.594 6.57528 72.8538 6.47441C73.1054 6.37353 73.5748 6.26425 73.9018 6.22222C74.2204 6.1886 74.6899 6.17179 74.9498 6.197ZM74.4635 9.10555C74.3378 9.1728 74.0611 9.40818 73.8515 9.63514C73.6419 9.86211 73.4072 10.1563 73.3317 10.2908C73.2646 10.4337 73.1557 10.77 73.097 11.0474C73.0383 11.3248 72.988 11.9132 72.988 12.3503C72.988 12.8547 73.0467 13.3927 73.1473 13.7794C73.2395 14.1409 73.4156 14.5696 73.5581 14.7797C73.709 14.9899 74.0276 15.2841 74.3126 15.4522C74.7653 15.7381 74.8659 15.7633 75.5701 15.7885C76.1151 15.8137 76.4588 15.7801 76.7942 15.6792C77.0457 15.6036 77.3642 15.4522 77.4984 15.3514C77.6409 15.2505 77.8673 14.9142 78.0182 14.578C78.1775 14.2586 78.3367 13.7626 78.3954 13.4852C78.4457 13.2078 78.4709 12.5689 78.4457 12.0561C78.4206 11.3752 78.3619 10.9885 78.2026 10.543C78.0936 10.2236 77.9092 9.8453 77.7918 9.69399C77.6828 9.55108 77.4732 9.35774 77.3391 9.27368C77.1966 9.18121 76.9534 9.06352 76.7942 9.01308C76.6265 8.96265 76.2911 8.9038 76.0396 8.87859C75.7797 8.86177 75.3773 8.87018 75.1342 8.91221C74.8911 8.95424 74.5893 9.04671 74.4635 9.10555ZM107.269 6.197C107.587 6.21382 108.099 6.28947 108.4 6.35672C108.694 6.42397 109.247 6.63413 109.616 6.82747C110.077 7.07125 110.463 7.35706 110.874 7.76897C111.259 8.15565 111.569 8.56756 111.762 8.94584C111.93 9.27368 112.123 9.72761 112.198 9.95458C112.274 10.19 112.374 10.7364 112.416 11.1735C112.467 11.619 112.5 12.0814 112.508 12.4344H103.957V12.8799C103.957 13.1237 103.991 13.4852 104.041 13.6785C104.083 13.8719 104.209 14.2081 104.309 14.4267C104.41 14.6452 104.611 14.9311 104.754 15.0656C104.888 15.2085 105.206 15.4186 105.466 15.5363C105.877 15.7381 106.02 15.7549 106.891 15.7549C107.763 15.7549 107.889 15.7381 108.275 15.5363C108.501 15.4186 108.82 15.1748 108.987 14.9899C109.147 14.8134 109.323 14.5528 109.373 14.4099C109.432 14.2754 109.49 14.0988 109.524 14.0148C109.566 13.8803 109.717 13.8635 110.999 13.8635C112.416 13.8635 112.425 13.8719 112.416 14.0568C112.416 14.1577 112.366 14.4351 112.307 14.6621C112.249 14.8974 112.098 15.2925 111.972 15.5447C111.855 15.8053 111.611 16.1836 111.444 16.3853C111.276 16.5955 110.941 16.9317 110.706 17.1335C110.471 17.3268 110.019 17.621 109.7 17.7724C109.373 17.9321 108.786 18.1254 108.4 18.2011C107.847 18.3104 107.42 18.3356 106.556 18.3019C105.734 18.2683 105.265 18.2095 104.879 18.0834C104.578 17.9909 104.175 17.8228 103.991 17.7219C103.806 17.6126 103.504 17.4109 103.32 17.2764C103.136 17.1419 102.783 16.7972 102.532 16.503C102.272 16.2172 101.937 15.7212 101.769 15.4102C101.61 15.0908 101.4 14.5696 101.316 14.2417C101.207 13.8551 101.149 13.2582 101.123 12.4344C101.09 11.4677 101.115 11.081 101.232 10.543C101.316 10.1647 101.543 9.54268 101.761 9.11396C102.046 8.54234 102.28 8.21449 102.733 7.76897C103.11 7.39069 103.538 7.07125 103.915 6.87791C104.234 6.70978 104.687 6.51644 104.921 6.44078C105.148 6.36513 105.642 6.26425 106.011 6.23063C106.38 6.1886 106.942 6.17179 107.269 6.197ZM105.382 8.92062C105.173 9.0383 104.863 9.2989 104.687 9.50905C104.51 9.7108 104.293 10.0723 104.2 10.316C104.108 10.5598 104.041 10.8288 104.041 10.9213C104.041 11.0894 104.091 11.0894 106.724 11.0894H109.407C109.407 10.7364 109.281 10.3665 109.121 10.0386C108.962 9.71921 108.744 9.37455 108.635 9.27368C108.526 9.1728 108.25 8.99627 108.023 8.87859C107.763 8.75249 107.403 8.65162 107.101 8.6264C106.824 8.60118 106.405 8.60959 106.179 8.64321C105.944 8.67684 105.584 8.80293 105.382 8.92062ZM133.887 6.197C134.18 6.21382 134.675 6.29788 134.977 6.39035C135.312 6.48282 135.706 6.68457 136.025 6.91153C136.301 7.12169 136.603 7.37387 136.712 7.49156C136.813 7.60084 137.005 7.89506 137.4 8.60959L137.408 6.12975H140.51V18.0666H137.911L137.785 17.6294C137.718 17.3857 137.617 16.999 137.567 16.7636C137.508 16.5366 137.441 16.3181 137.416 16.276C137.383 16.2424 137.24 16.3937 137.098 16.6123C136.947 16.8393 136.687 17.1587 136.511 17.3268C136.335 17.5034 135.89 17.7808 135.522 17.9573C134.876 18.2683 134.809 18.2767 133.803 18.3104C133.04 18.3272 132.596 18.3019 132.185 18.2011C131.875 18.1338 131.43 17.9741 131.204 17.8564C130.969 17.7471 130.609 17.4781 130.408 17.268C130.198 17.0662 129.913 16.6627 129.779 16.3853C129.636 16.1079 129.435 15.5699 129.326 15.1916C129.209 14.8134 129.075 14.0988 129.016 13.6113C128.957 13.0817 128.932 12.3503 128.966 11.7619C128.991 11.2323 129.066 10.5178 129.133 10.1647C129.2 9.82008 129.36 9.27368 129.485 8.94584C129.611 8.6264 129.812 8.20609 129.921 8.02115C130.039 7.83622 130.307 7.50837 130.517 7.28141C130.735 7.06284 131.078 6.79385 131.288 6.68456C131.489 6.57528 131.816 6.44078 132 6.38194C132.185 6.3231 132.562 6.24744 132.839 6.21382C133.115 6.18019 133.585 6.17179 133.887 6.197ZM133.216 9.22324C133.006 9.35774 132.696 9.65196 132.529 9.87892C132.353 10.1059 132.143 10.5178 132.068 10.7952C131.959 11.1651 131.917 11.6022 131.917 12.3503C131.917 13.233 131.95 13.5104 132.109 14.0316C132.277 14.5696 132.386 14.7377 132.763 15.1076C133.115 15.4522 133.317 15.5783 133.694 15.6876C134.021 15.7801 134.407 15.8137 134.893 15.7885C135.438 15.7633 135.698 15.7128 136.025 15.5447C136.276 15.4186 136.544 15.1916 136.72 14.9563C136.871 14.7545 137.073 14.3342 137.165 14.0316C137.257 13.7374 137.349 13.1489 137.383 12.7286C137.408 12.2159 137.383 11.7535 137.291 11.2575C137.215 10.8709 137.047 10.3413 136.922 10.0891C136.787 9.82008 136.544 9.51746 136.335 9.35774C136.142 9.19802 135.84 9.0383 135.664 8.99627C135.488 8.95424 135.144 8.9038 134.893 8.87859C134.633 8.85337 134.239 8.87018 134.013 8.91221C133.778 8.95424 133.417 9.09715 133.216 9.22324ZM143.075 6.12975C144.148 6.12975 144.282 6.14657 144.316 6.28107C144.333 6.36513 144.459 6.95356 144.584 7.60084C144.785 8.64321 144.819 8.75249 144.894 8.52552C144.936 8.39102 145.112 8.10521 145.272 7.90346C145.439 7.69331 145.674 7.44112 145.792 7.32344C145.901 7.21416 146.186 7.004 146.42 6.85269C146.647 6.70138 147.007 6.51644 147.217 6.44078C147.418 6.36513 147.846 6.26425 148.164 6.23063C148.483 6.1886 149.07 6.1886 149.464 6.23063C149.975 6.28947 150.335 6.38194 150.696 6.55007C150.973 6.68456 151.383 6.96197 151.618 7.16372C151.845 7.36547 152.155 7.76056 152.297 8.02956C152.44 8.30696 152.616 8.73568 152.691 8.98787C152.767 9.24846 152.867 9.81167 152.909 10.2488C152.96 10.6943 152.993 12.6278 153.001 18.0666H150.067L150.042 14.4351C150.017 11.1735 150 10.7532 149.858 10.3329C149.749 10.0134 149.589 9.76124 149.313 9.49224C149.061 9.24846 148.784 9.07193 148.508 8.99627C148.273 8.92062 147.82 8.87018 147.468 8.87859C147.041 8.88699 146.697 8.94584 146.42 9.06352C146.186 9.1644 145.875 9.36615 145.733 9.51746C145.59 9.66877 145.381 9.96299 145.272 10.1647C145.171 10.3749 145.029 10.7532 144.962 11.0054C144.869 11.3584 144.836 12.2579 144.785 18.0666H141.767L141.751 12.157C141.742 8.9038 141.767 6.22222 141.809 6.1886C141.843 6.15497 142.413 6.12975 143.075 6.12975Z" fill="#4649D6"/>
</svg>
