<svg width="164" height="20" viewBox="0 0 164 20" fill="none" xmlns="http://www.w3.org/2000/svg">
<path fill-rule="evenodd" clip-rule="evenodd" d="M31.8267 0.179396C37.0803 0.171139 41.4035 0.195909 41.4364 0.228936C41.4694 0.261963 40.9094 1.44268 38.8755 5.41417L17.9926 5.49674L17.375 5.79398C17.0291 5.96738 16.5762 6.27288 16.3374 6.49581C16.1068 6.71874 15.7363 7.21415 15.514 7.60221C15.2916 7.98202 14.9458 8.46917 14.7399 8.67559C14.534 8.89027 14.18 9.16274 13.9576 9.29485C13.7271 9.42695 13.3071 9.60035 13.0106 9.68291C12.533 9.81502 12.0719 9.83154 8.74513 9.83154C5.82185 9.83154 5.0231 9.80676 5.0231 9.73245C5.0231 9.67466 5.59128 8.51046 7.54288 4.67107L11.9401 4.62153C15.7116 4.5885 16.4033 4.55547 16.7574 4.43988C16.9797 4.36557 17.3503 4.20869 17.5808 4.07658C17.8032 3.95273 18.1655 3.68026 18.3714 3.47384C18.5772 3.26742 18.9313 2.78853 19.1536 2.40046C19.376 2.02065 19.7218 1.5335 19.9277 1.32708C20.1336 1.12067 20.4712 0.856449 20.6688 0.740855C20.8747 0.62526 21.2288 0.476639 21.4676 0.410585C21.7064 0.336274 21.9863 0.261963 22.0852 0.237193C22.1922 0.212423 26.573 0.187652 31.8267 0.179396ZM32.6501 10.1618C34.6841 10.1618 36.3804 10.1866 36.4133 10.2196C36.4463 10.2609 35.8946 11.4251 33.8853 15.3636H29.908C27.5859 15.3636 25.6754 15.3966 25.2966 15.4544C24.9261 15.5039 24.4485 15.636 24.1438 15.7847C23.8638 15.9168 23.4274 16.2223 23.1721 16.4534C22.9168 16.7012 22.5051 17.2296 22.2416 17.6754C21.9699 18.1213 21.5911 18.6167 21.3605 18.8149C21.1382 19.013 20.7347 19.2773 20.4629 19.4094C20.1912 19.5415 19.7465 19.6818 19.4748 19.7314C19.1372 19.7974 15.9833 19.8222 9.48624 19.8222C1.9516 19.8222 0 19.7974 0 19.7149C0 19.6653 0.584655 18.4764 2.59389 14.5379L23.4274 14.4966L24.0615 14.1828C24.4649 13.9929 24.8684 13.7205 25.1402 13.4397C25.379 13.2085 25.7413 12.7131 25.9554 12.3498C26.1777 11.9535 26.5236 11.5077 26.8118 11.2352C27.0835 10.9875 27.4623 10.6985 27.6682 10.5994C27.8741 10.5003 28.2446 10.36 28.4917 10.2939C28.854 10.1948 29.6692 10.1701 32.6501 10.1618ZM53.6483 1.97111C54.06 1.98762 54.76 2.07845 55.2129 2.16927C55.6658 2.2601 56.2916 2.44174 56.6128 2.57385C56.9339 2.70596 57.4115 2.97843 57.6833 3.18485C57.955 3.39127 58.3173 3.7298 58.4902 3.94447C58.6632 4.16741 58.8937 4.52245 59.009 4.75363C59.1161 4.97657 59.2808 5.46372 59.3713 5.82701C59.4619 6.19031 59.536 6.68571 59.536 7.35451H56.6539V7.08204C56.6539 6.94167 56.5963 6.6114 56.5222 6.3637C56.4316 6.06646 56.2669 5.78573 56.0363 5.53803C55.8305 5.31509 55.4764 5.06739 55.1635 4.92703C54.6529 4.68758 54.5953 4.67932 53.566 4.69584C52.9813 4.70409 52.1743 4.75363 51.7708 4.79492C51.3756 4.84446 50.8568 4.9518 50.618 5.04262C50.3874 5.12519 50.091 5.30684 49.9675 5.43069C49.8522 5.55454 49.7122 5.81876 49.6628 6.00866C49.5969 6.25636 49.5969 6.47104 49.6545 6.71048C49.6957 6.90865 49.7945 7.14809 49.8604 7.24717C49.9263 7.35451 50.1568 7.56919 50.3709 7.72606C50.6262 7.90771 51.1203 8.13065 51.7544 8.33706C52.2978 8.51871 53.3519 8.79944 54.1012 8.96458C54.8506 9.12971 55.7728 9.36916 56.1599 9.50127C56.5469 9.62512 57.148 9.86456 57.4939 10.0297C57.9303 10.2361 58.2844 10.4756 58.6138 10.7976C58.8937 11.07 59.1902 11.4746 59.3055 11.7306C59.4208 11.9783 59.569 12.4242 59.6266 12.7214C59.6843 13.0517 59.709 13.5553 59.676 14.0425C59.6349 14.7195 59.5937 14.9012 59.3384 15.4048C59.1737 15.7434 58.869 16.1562 58.6138 16.4122C58.375 16.6434 57.955 16.9736 57.6833 17.1388C57.4115 17.2956 56.901 17.5433 56.5469 17.6754C56.201 17.8158 55.4929 17.9975 54.9823 18.0883C54.373 18.1956 53.6977 18.2534 53.006 18.2534C52.3143 18.2534 51.6885 18.2039 51.1532 18.0965C50.7168 18.0057 50.0416 17.8241 49.6545 17.6837C49.2675 17.5433 48.6829 17.2544 48.3535 17.0397C48.0241 16.8167 47.53 16.4204 47.2583 16.1479C46.9536 15.8424 46.6736 15.4626 46.5254 15.1571C46.4019 14.8847 46.2372 14.4223 46.1713 14.125C46.0972 13.8278 46.0313 13.3819 45.9902 12.6801L48.9134 12.6388L48.9546 12.8618C48.9793 12.9939 49.0452 13.2251 49.0946 13.3819C49.144 13.5388 49.3252 13.8773 49.4981 14.125C49.6875 14.3893 50.0169 14.7113 50.2968 14.8929C50.5521 15.0663 50.9721 15.2645 51.2191 15.347C51.5814 15.4544 51.9767 15.4874 53.1542 15.4874C54.4635 15.4792 54.6859 15.4626 55.0894 15.3058C55.4105 15.1819 55.6576 15.0003 55.9375 14.6865C56.1928 14.4058 56.3493 14.1416 56.3822 13.9599C56.4069 13.803 56.4069 13.5058 56.3822 13.2994C56.3493 13.093 56.2422 12.804 56.1434 12.6636C56.0199 12.482 55.707 12.2673 55.2129 12.0278C54.6282 11.7388 54.0518 11.5572 52.4543 11.1609C51.3426 10.8801 50.198 10.5581 49.9016 10.4343C49.6051 10.3187 49.0781 10.071 48.724 9.89759C48.3782 9.7242 47.9582 9.45998 47.7935 9.31136C47.6206 9.171 47.3406 8.82421 47.1595 8.55174C46.9783 8.27927 46.7724 7.92423 46.7066 7.76735C46.6407 7.61047 46.5583 7.16461 46.5172 6.77654C46.4513 6.22334 46.4595 5.94261 46.5666 5.45546C46.6324 5.11693 46.7724 4.67107 46.8713 4.46465C46.9701 4.25823 47.2747 3.87016 47.5465 3.59769C47.8512 3.29219 48.2382 3.0032 48.5429 2.86284C48.8146 2.73899 49.2922 2.54908 49.6134 2.44175C49.9345 2.33441 50.4286 2.21056 50.725 2.15276C51.0215 2.09496 51.6308 2.02065 52.0837 1.98762C52.5366 1.96285 53.2366 1.94634 53.6483 1.97111ZM81.6047 1.90506L84.6103 1.94634L84.6515 5.29032C84.6762 7.13158 84.7174 8.54348 84.7503 8.42789C84.7833 8.31229 85.0385 7.96551 85.3268 7.65175C85.6561 7.29671 86.0432 6.98296 86.3808 6.79305C86.6772 6.62792 87.0972 6.44627 87.3278 6.38021C87.5501 6.32242 88.0936 6.27288 88.5218 6.26462C88.9582 6.26462 89.5511 6.32242 89.8558 6.39673C90.1687 6.47104 90.6134 6.62792 90.8439 6.75177C91.0827 6.86736 91.478 7.15635 91.7168 7.38754C91.9638 7.61873 92.2603 7.99028 92.392 8.22147C92.5238 8.4444 92.7049 8.84072 92.8038 9.08843C92.9026 9.33613 93.0508 9.89759 93.1414 10.3269C93.2649 10.8967 93.3061 11.4416 93.3061 12.3086C93.3061 13.192 93.2649 13.6957 93.1496 14.2489C93.059 14.6535 92.8943 15.2149 92.7873 15.4874C92.6802 15.7599 92.4414 16.2057 92.2603 16.47C92.0873 16.7424 91.7909 17.0892 91.6097 17.2461C91.4286 17.403 91.091 17.6176 90.8686 17.725C90.6381 17.8323 90.1934 17.9727 89.8805 18.047C89.5676 18.1131 88.9253 18.1709 88.4559 18.1709C87.7724 18.1709 87.5007 18.1296 86.9737 17.9562C86.6278 17.8406 86.1584 17.6259 85.9361 17.4855C85.7138 17.3369 85.3597 16.9984 85.1456 16.7259C84.9315 16.4534 84.7256 16.1645 84.6845 16.0902C84.6268 15.9828 84.5445 16.1975 84.1163 17.9231H81.6047V1.90506ZM86.1337 9.16274C85.9691 9.21228 85.7055 9.39393 85.5409 9.56732C85.3679 9.73246 85.1456 10.0792 85.0303 10.3269C84.9233 10.5829 84.7833 11.0288 84.7256 11.3178C84.6598 11.6563 84.6433 12.1599 84.668 12.6388C84.7009 13.1507 84.7833 13.6214 84.9068 13.9599C85.0056 14.2572 85.2032 14.6452 85.3432 14.8186C85.4832 15.0003 85.8126 15.2562 86.0843 15.3966C86.5125 15.6195 86.6772 15.6608 87.3607 15.6856C87.9042 15.7103 88.283 15.6773 88.6041 15.5865C88.9006 15.5039 89.1888 15.3388 89.4523 15.1076C89.6746 14.9094 89.9381 14.5627 90.0452 14.3315C90.1769 14.0507 90.2675 13.6544 90.3251 13.093C90.3746 12.5397 90.3746 12.0526 90.3169 11.6067C90.2757 11.2434 90.1522 10.748 90.0616 10.4921C89.9628 10.2444 89.7487 9.90585 89.5758 9.73245C89.4029 9.55906 89.1147 9.34439 88.9335 9.25356C88.7523 9.16274 88.3488 9.0554 88.0442 9.01412C87.7395 8.96458 87.4348 8.93155 87.3689 8.93981C87.2948 8.93981 87.056 8.97283 86.8337 9.00586C86.6031 9.03889 86.2902 9.1132 86.1337 9.16274ZM94.9447 1.90506H97.9092V17.9231H94.9447V1.90506ZM112.484 1.90506L115.507 1.91331C117.17 1.91331 118.981 1.94634 119.525 1.98762C120.068 2.03716 120.752 2.11147 121.048 2.16102C121.337 2.21056 121.839 2.32615 122.16 2.41697C122.473 2.5078 122.934 2.68945 123.189 2.82156C123.436 2.95366 123.815 3.23439 124.038 3.45733C124.252 3.672 124.54 4.06832 124.672 4.3408C124.82 4.63804 124.96 5.10867 125.017 5.49674C125.092 5.99215 125.092 6.29765 125.026 6.69397C124.976 6.99121 124.845 7.45359 124.746 7.72606C124.639 7.99854 124.416 8.37009 124.252 8.55174C124.087 8.73339 123.766 8.98935 123.543 9.1132C123.321 9.23705 122.778 9.42695 122.325 9.54255C121.872 9.65814 121.402 9.75723 121.295 9.76548C121.18 9.77374 121.402 9.80677 121.789 9.83979C122.168 9.87282 122.728 9.96364 123.025 10.038C123.313 10.1123 123.716 10.2526 123.914 10.3517C124.112 10.459 124.441 10.6902 124.655 10.8719C124.869 11.0618 125.157 11.4333 125.297 11.6976C125.446 11.97 125.619 12.4076 125.693 12.6801C125.767 12.9526 125.824 13.3819 125.816 13.6296C125.816 13.8856 125.759 14.348 125.693 14.6617C125.627 14.9837 125.47 15.4131 125.347 15.6113C125.232 15.8177 124.943 16.181 124.713 16.4204C124.474 16.6764 124.07 16.9819 123.766 17.1305C123.469 17.2874 123.008 17.469 122.736 17.5433C122.465 17.6176 121.888 17.7332 121.46 17.7993C120.834 17.8984 119.854 17.9231 112.484 17.9231V1.90506ZM115.367 8.51046C120.34 8.46917 120.538 8.45266 120.966 8.28752C121.221 8.18844 121.526 7.99028 121.682 7.81689C121.831 7.66001 121.995 7.36277 122.045 7.17286C122.094 6.98296 122.119 6.57838 122.094 6.28113C122.069 5.99215 121.995 5.63711 121.929 5.49674C121.855 5.36463 121.699 5.14996 121.567 5.02611C121.435 4.91051 121.164 4.74538 120.966 4.67932C120.76 4.60501 120.274 4.51419 119.896 4.46465C119.509 4.42336 118.331 4.39034 117.277 4.39034L115.367 4.38208V8.51046ZM115.367 15.5287C119.912 15.4792 120.711 15.4379 121.048 15.347C121.295 15.281 121.658 15.1489 121.847 15.0498C122.037 14.9507 122.275 14.7526 122.382 14.6039C122.481 14.4553 122.613 14.1663 122.671 13.9599C122.728 13.7617 122.778 13.4562 122.778 13.2829C122.778 13.1095 122.728 12.7957 122.671 12.581C122.605 12.3416 122.44 12.0526 122.234 11.8214C122.045 11.615 121.715 11.3673 121.493 11.2682C121.271 11.1691 120.81 11.0453 120.472 10.9957C120.126 10.9462 118.85 10.8801 117.623 10.8554L115.391 10.7976L115.367 15.5287ZM151.846 1.90506H154.81L154.851 11.7471L159.71 6.20682L161.439 6.22334C162.658 6.23985 163.168 6.27288 163.168 6.33893C163.168 6.38847 162.139 7.51139 160.879 8.83247C159.619 10.1535 158.598 11.2765 158.598 11.3178C158.598 11.3673 159.652 12.8452 160.945 14.6039C162.238 16.3626 163.267 17.8323 163.234 17.8654C163.193 17.8984 162.411 17.9149 159.8 17.8819L156.498 13.3737L154.802 15.0746L154.81 17.9231H151.846V1.90506ZM65.0532 3.3087V6.19857H67.6883V8.34532H65.0532V15.6113H67.7706V17.9231H66.1402C65.0779 17.9231 64.3697 17.8901 64.1062 17.8158C63.8757 17.758 63.5627 17.6342 63.4063 17.5351C63.2416 17.4443 63.0028 17.2213 62.871 17.0479C62.7393 16.8745 62.5581 16.5195 62.484 16.2553C62.344 15.8259 62.3358 15.4048 62.3358 8.34532H60.6065L60.5983 6.23985L61.1583 6.19857C61.4629 6.16554 61.8253 6.09123 61.9652 6.01692C62.097 5.95086 62.2699 5.76921 62.344 5.61234C62.4264 5.46372 62.5252 5.16647 62.5746 4.96005C62.6158 4.76189 62.6569 4.39034 62.6569 4.13438C62.6652 3.88668 62.6816 3.59769 62.7146 3.49861C62.7558 3.31696 62.7887 3.3087 65.0532 3.3087ZM73.6172 6.26462C73.8642 6.28113 74.2512 6.33893 74.4818 6.38021C74.7041 6.42976 75.0582 6.55361 75.2641 6.66094C75.4617 6.76002 75.8487 7.04075 76.1123 7.28846C76.384 7.5279 76.7051 7.91597 77.0675 8.55174L77.1169 6.23985L80.0978 6.19857L80.1225 17.9231H77.5698L77.3639 17.0149C77.2486 16.5195 77.1251 16.1149 77.0922 16.1149C77.0592 16.1149 76.9357 16.2635 76.8287 16.4534C76.7134 16.6434 76.4746 16.9489 76.2934 17.1305C76.1123 17.3204 75.7417 17.5929 75.47 17.7332C75.1982 17.8736 74.7783 18.0305 74.5395 18.08C74.3007 18.1296 73.7407 18.1709 73.2878 18.1709C72.8349 18.1709 72.2667 18.1296 72.0279 18.08C71.7891 18.0305 71.4021 17.8984 71.1633 17.791C70.9245 17.6837 70.5457 17.4195 70.3069 17.2048C70.0598 16.9736 69.7799 16.5938 69.6234 16.2718C69.4752 15.9828 69.2776 15.4792 69.187 15.1571C69.0882 14.8434 68.9729 14.3067 68.9152 13.9599C68.8576 13.6214 68.8164 12.8452 68.8164 12.226C68.8246 11.615 68.8823 10.7811 68.9564 10.3682C69.0223 9.96364 69.154 9.40218 69.2528 9.12971C69.3434 8.85724 69.5163 8.46917 69.6316 8.26275C69.7552 8.06459 69.9857 7.73432 70.1504 7.5279C70.3069 7.32974 70.5951 7.06552 70.7762 6.94167C70.9574 6.81782 71.3033 6.63617 71.5585 6.53709C71.8056 6.43801 72.2667 6.33067 72.5879 6.28939C72.9008 6.25636 73.3619 6.23985 73.6172 6.26462ZM73.1396 9.12146C73.0161 9.18751 72.7443 9.4187 72.5385 9.64163C72.3326 9.86456 72.102 10.1535 72.0279 10.2857C71.962 10.426 71.855 10.7563 71.7973 11.0288C71.7397 11.3012 71.6903 11.8792 71.6903 12.3086C71.6903 12.804 71.7479 13.3324 71.8467 13.7122C71.9373 14.0672 72.1103 14.4883 72.2502 14.6948C72.3985 14.9012 72.7114 15.1902 72.9913 15.3553C73.436 15.636 73.5348 15.6608 74.2265 15.6856C74.7618 15.7103 75.0994 15.6773 75.4288 15.5782C75.6758 15.5039 75.9887 15.3553 76.1205 15.2562C76.2605 15.1571 76.4828 14.8269 76.631 14.4966C76.7875 14.1828 76.9439 13.6957 77.0016 13.4232C77.051 13.1507 77.0757 12.5232 77.051 12.0196C77.0263 11.3508 76.9687 10.971 76.8122 10.5334C76.7051 10.2196 76.524 9.84805 76.4087 9.69943C76.3017 9.55906 76.0958 9.36916 75.964 9.28659C75.8241 9.19577 75.5852 9.08017 75.4288 9.03063C75.2641 8.98109 74.9347 8.92329 74.6877 8.89852C74.4324 8.88201 74.0371 8.89027 73.7983 8.93155C73.5595 8.97283 73.2631 9.06366 73.1396 9.12146ZM105.361 6.26462C105.674 6.28113 106.177 6.35544 106.473 6.4215C106.761 6.48755 107.305 6.69397 107.667 6.88388C108.12 7.12332 108.499 7.40405 108.902 7.80863C109.281 8.18844 109.586 8.59302 109.775 8.96458C109.94 9.28659 110.129 9.73245 110.203 9.95539C110.278 10.1866 110.376 10.7233 110.418 11.1526C110.467 11.5902 110.5 12.0443 110.508 12.3911H102.109V12.8287C102.109 13.0682 102.142 13.4232 102.191 13.6131C102.232 13.803 102.356 14.1333 102.455 14.348C102.553 14.5627 102.751 14.8434 102.891 14.9755C103.023 15.1159 103.336 15.3223 103.591 15.4379C103.995 15.636 104.135 15.6525 104.991 15.6525C105.847 15.6525 105.971 15.636 106.35 15.4379C106.572 15.3223 106.885 15.0828 107.05 14.9012C107.206 14.7278 107.379 14.4718 107.428 14.3315C107.486 14.1994 107.544 14.026 107.577 13.9434C107.618 13.8113 107.766 13.7948 109.026 13.7948C110.418 13.7948 110.426 13.803 110.418 13.9847C110.418 14.0838 110.368 14.3562 110.31 14.5792C110.253 14.8104 110.105 15.1984 109.981 15.4461C109.866 15.7021 109.627 16.0736 109.462 16.2718C109.298 16.4782 108.968 16.8085 108.738 17.0067C108.507 17.1966 108.062 17.4855 107.75 17.6342C107.428 17.791 106.852 17.9809 106.473 18.0553C105.93 18.1626 105.51 18.1874 104.662 18.1543C103.855 18.1213 103.393 18.0635 103.015 17.9397C102.718 17.8488 102.323 17.6837 102.142 17.5846C101.961 17.4773 101.664 17.2791 101.483 17.147C101.302 17.0149 100.956 16.6764 100.709 16.3874C100.454 16.1067 100.124 15.6195 99.9596 15.314C99.8032 15.0003 99.5973 14.4883 99.5149 14.1663C99.4079 13.7865 99.3503 13.2003 99.3255 12.3911C99.2926 11.4416 99.3173 11.0618 99.4326 10.5334C99.5149 10.1618 99.7373 9.55081 99.9514 9.12971C100.231 8.56825 100.462 8.24624 100.907 7.80863C101.277 7.43708 101.697 7.12332 102.068 6.93342C102.381 6.76828 102.825 6.57838 103.056 6.50407C103.278 6.42975 103.764 6.33067 104.126 6.29765C104.489 6.25636 105.04 6.23985 105.361 6.26462ZM103.509 8.93981C103.303 9.0554 102.998 9.31136 102.825 9.51778C102.652 9.71594 102.438 10.071 102.348 10.3104C102.257 10.5499 102.191 10.8141 102.191 10.9049C102.191 11.07 102.241 11.07 104.826 11.07H107.461C107.461 10.7233 107.338 10.36 107.181 10.038C107.025 9.7242 106.811 9.38567 106.704 9.28659C106.597 9.18751 106.325 9.01412 106.103 8.89852C105.847 8.77467 105.493 8.67559 105.197 8.65082C104.925 8.62605 104.513 8.63431 104.291 8.66733C104.06 8.70036 103.706 8.82421 103.509 8.93981ZM131.506 6.26462C131.795 6.28113 132.28 6.3637 132.577 6.45452C132.906 6.54535 133.293 6.74351 133.606 6.96644C133.878 7.17286 134.174 7.42057 134.281 7.53616C134.38 7.6435 134.57 7.93248 134.957 8.63431L134.965 6.19857H138.012V17.9231H135.459L135.335 17.4938C135.27 17.2544 135.171 16.8745 135.121 16.6434C135.064 16.4204 134.998 16.2057 134.973 16.1645C134.94 16.1314 134.8 16.2801 134.66 16.4947C134.512 16.7177 134.257 17.0314 134.084 17.1966C133.911 17.3699 133.474 17.6424 133.112 17.8158C132.478 18.1213 132.412 18.1296 131.424 18.1626C130.675 18.1791 130.238 18.1543 129.835 18.0553C129.53 17.9892 129.094 17.8323 128.871 17.7167C128.641 17.6094 128.287 17.3452 128.089 17.1388C127.883 16.9406 127.603 16.5443 127.471 16.2718C127.331 15.9993 127.134 15.4709 127.027 15.0993C126.911 14.7278 126.78 14.026 126.722 13.5471C126.664 13.0269 126.64 12.3086 126.673 11.7306C126.697 11.2104 126.771 10.5086 126.837 10.1618C126.903 9.82328 127.06 9.28659 127.183 8.96458C127.307 8.65082 127.504 8.23798 127.611 8.05633C127.727 7.87469 127.99 7.55267 128.196 7.32974C128.41 7.11507 128.748 6.85085 128.954 6.74351C129.151 6.63617 129.472 6.50407 129.654 6.44627C129.835 6.38847 130.205 6.31416 130.477 6.28113C130.749 6.24811 131.21 6.23985 131.506 6.26462ZM130.848 9.23705C130.642 9.36916 130.337 9.65814 130.172 9.88108C129.999 10.104 129.794 10.5086 129.719 10.7811C129.612 11.1444 129.571 11.5737 129.571 12.3086C129.571 13.1755 129.604 13.448 129.761 13.9599C129.925 14.4883 130.032 14.6535 130.403 15.0168C130.749 15.3553 130.946 15.4792 131.317 15.5865C131.638 15.6773 132.017 15.7103 132.494 15.6856C133.03 15.6608 133.285 15.6113 133.606 15.4461C133.853 15.3223 134.117 15.0993 134.29 14.8682C134.438 14.67 134.635 14.2572 134.726 13.9599C134.817 13.6709 134.907 13.093 134.94 12.6801C134.965 12.1765 134.94 11.7223 134.85 11.2352C134.775 10.8554 134.611 10.3352 134.487 10.0875C134.355 9.82328 134.117 9.52604 133.911 9.36916C133.721 9.21228 133.425 9.0554 133.252 9.01412C133.079 8.97283 132.741 8.92329 132.494 8.89852C132.239 8.87375 131.852 8.89027 131.63 8.93155C131.399 8.97283 131.045 9.1132 130.848 9.23705ZM140.531 6.19857C141.585 6.19857 141.717 6.21508 141.75 6.34719C141.767 6.42976 141.89 7.00773 142.014 7.6435C142.211 8.66733 142.244 8.77467 142.318 8.55174C142.359 8.41963 142.532 8.1389 142.689 7.94074C142.854 7.73432 143.084 7.48662 143.199 7.37102C143.306 7.26369 143.586 7.05727 143.817 6.90865C144.039 6.76002 144.393 6.57838 144.599 6.50407C144.797 6.42975 145.217 6.33067 145.53 6.29765C145.843 6.25636 146.419 6.25636 146.806 6.29765C147.308 6.35544 147.663 6.44627 148.017 6.6114C148.288 6.74351 148.692 7.01598 148.922 7.21415C149.145 7.41231 149.449 7.80037 149.589 8.06459C149.729 8.33706 149.902 8.75816 149.976 9.00586C150.051 9.26182 150.149 9.81502 150.191 10.2444C150.24 10.682 150.273 12.581 150.281 17.9231H147.399L147.374 14.3562C147.35 11.1526 147.333 10.7398 147.193 10.3269C147.086 10.0132 146.93 9.76548 146.658 9.50127C146.411 9.26182 146.139 9.08843 145.867 9.01412C145.637 8.93981 145.192 8.89027 144.846 8.89852C144.426 8.90678 144.089 8.96458 143.817 9.08017C143.586 9.17925 143.282 9.37741 143.142 9.52604C143.002 9.67466 142.796 9.96364 142.689 10.1618C142.59 10.3682 142.45 10.7398 142.384 10.9875C142.294 11.3343 142.261 12.2177 142.211 17.9231H139.247L139.23 12.1187C139.222 8.92329 139.247 6.28939 139.288 6.25636C139.321 6.22334 139.881 6.19857 140.531 6.19857Z" fill="#E8F2A2"/>
</svg>
